<mxfile host="app.diagrams.net" modified="2022-12-16T09:31:42.206Z" agent="5.0 (Windows NT 10.0; Win64; x64) AppleWebKit/537.36 (KHTML, like Gecko) Chrome/108.0.0.0 Safari/537.36 Edg/108.0.1462.46" version="20.7.3" etag="EUtzUt4i-T1l_9qjEUXK" type="github">
  <diagram id="OpC3azfx2PL42Zp19zgA" name="Page-1">
    <mxGraphModel dx="780" dy="446" grid="1" gridSize="10" guides="1" tooltips="1" connect="1" arrows="1" fold="1" page="1" pageScale="1" pageWidth="850" pageHeight="1100" math="0" shadow="0">
      <root>
        <mxCell id="0" />
        <mxCell id="1" parent="0" />
        <mxCell id="W2-vjMIsSZR6E8rsy7kg-2" value="" style="rounded=0;whiteSpace=wrap;html=1;" vertex="1" parent="1">
          <mxGeometry x="115" y="79" width="40" height="70" as="geometry" />
        </mxCell>
        <mxCell id="W2-vjMIsSZR6E8rsy7kg-1" value="Actor" style="shape=umlActor;verticalLabelPosition=bottom;verticalAlign=top;html=1;shadow=0;gradientColor=none;" vertex="1" parent="1">
          <mxGeometry x="120" y="80" width="30" height="50" as="geometry" />
        </mxCell>
        <mxCell id="W2-vjMIsSZR6E8rsy7kg-7" value="&lt;font style=&quot;font-size: 19px;&quot;&gt;1&lt;/font&gt;" style="text;html=1;strokeColor=none;fillColor=none;align=center;verticalAlign=middle;whiteSpace=wrap;rounded=0;shadow=0;sketch=0;" vertex="1" parent="1">
          <mxGeometry x="80" y="95" width="20" height="20" as="geometry" />
        </mxCell>
      </root>
    </mxGraphModel>
  </diagram>
</mxfile>
